# xmcd CD database file
#
# Track frame offsets:
#	150
#	14788
#	29389
#	47838
#	61640
#	76106
#	90269
#	101474
#	115607
#	128882
#	158703
#	170499
#
# Disc length: 2870 seconds
#
# Revision: 1
# Processed by: cddbd v1.5.1PL0 Copyright (c) Steve Scherf et al.
# Submitted via: CDex 1.51
#
DISCID=860b340c
DTITLE=Miles Davis - Jazz History 3
DYEAR=2005
DGENRE=Jazz
TTITLE0=Jeru
TTITLE1=Venus De Milo
TTITLE2=Conception
TTITLE3=Boplicity
TTITLE4=Godchild
TTITLE5=Rocker
TTITLE6=Yesterdays
TTITLE7=Hibeck
TTITLE8=Ezz-Thetic
TTITLE9=My Old Flame
TTITLE10=Budo
TTITLE11=Bluing
EXTD=YEAR: 2005
EXTT0=
EXTT1=
EXTT2=
EXTT3=
EXTT4=
EXTT5=
EXTT6=
EXTT7=
EXTT8=
EXTT9=
EXTT10=
EXTT11=
PLAYORDER=
